<svg width="193" height="31" viewBox="0 0 193 31" fill="none" xmlns="http://www.w3.org/2000/svg">
<g filter="url(#filter0_d_187_4)">
<path d="M12.628 25.2002L0.999989 0.000193596H5.39199L12.124 15.0122C12.268 15.3482 12.496 15.8402 12.808 16.4882C13.12 17.1122 13.456 17.8202 13.816 18.6122C14.176 19.4042 14.524 20.1842 14.86 20.9522C15.196 21.7202 15.46 22.4042 15.652 23.0042L14.5 23.0402C14.764 22.3202 15.1 21.4802 15.508 20.5202C15.94 19.5362 16.36 18.5642 16.768 17.6042C17.2 16.6202 17.56 15.7802 17.848 15.0842L24.076 0.000193596H28.648L17.308 25.2002H12.628ZM38.8053 25.2002V21.3482H45.3933V3.85219H38.8053V0.000193596H55.8693V3.85219H49.2813V21.3482H55.8693V25.2002H38.8053ZM66.2919 25.2002V22.3562L84.8319 3.13219L86.2359 3.81619H67.2279V0.000193596H90.5199V2.80819L71.9799 22.0682L70.6119 21.3842H90.9159V25.2002H66.2919ZM101.348 25.2002V21.3482H107.936V3.85219H101.348V0.000193596H118.412V3.85219H111.824V21.3482H118.412V25.2002H101.348ZM131.787 25.2002V0.000193596H152.703V3.74419H135.675V21.4562H152.703V25.2002H131.787ZM133.911 14.1482V10.4042H150.723V14.1482H133.911ZM165.01 25.2002V0.000193596H179.734C181.222 0.000193596 182.578 0.348194 183.802 1.0442C185.05 1.7162 186.046 2.64019 186.79 3.81619C187.534 4.99219 187.906 6.30019 187.906 7.74019C187.906 9.25219 187.498 10.6322 186.682 11.8802C185.866 13.1042 184.786 14.0882 183.442 14.8322C182.098 15.5522 180.622 15.9122 179.014 15.9122H168.898V25.2002H165.01ZM184.522 25.2002L175.954 13.8242L180.094 12.9242L189.382 25.2362L184.522 25.2002ZM168.898 12.1682H178.654C179.566 12.1682 180.406 11.9642 181.174 11.5562C181.966 11.1482 182.59 10.6082 183.046 9.93619C183.526 9.26419 183.766 8.53219 183.766 7.74019C183.766 6.99619 183.526 6.32419 183.046 5.7242C182.59 5.12419 181.966 4.64419 181.174 4.28419C180.406 3.92419 179.566 3.74419 178.654 3.74419H168.898V12.1682Z" fill="white" fill-opacity="0.68" shape-rendering="crispEdges"/>
</g>
<defs>
<filter id="filter0_d_187_4" x="0" y="0" width="192.381" height="30.2363" filterUnits="userSpaceOnUse" color-interpolation-filters="sRGB">
<feFlood flood-opacity="0" result="BackgroundImageFix"/>
<feColorMatrix in="SourceAlpha" type="matrix" values="0 0 0 0 0 0 0 0 0 0 0 0 0 0 0 0 0 0 127 0" result="hardAlpha"/>
<feOffset dx="1" dy="3"/>
<feGaussianBlur stdDeviation="1"/>
<feComposite in2="hardAlpha" operator="out"/>
<feColorMatrix type="matrix" values="0 0 0 0 0 0 0 0 0 0 0 0 0 0 0 0 0 0 0.25 0"/>
<feBlend mode="normal" in2="BackgroundImageFix" result="effect1_dropShadow_187_4"/>
<feBlend mode="normal" in="SourceGraphic" in2="effect1_dropShadow_187_4" result="shape"/>
</filter>
</defs>
</svg>
